<?xml version="1.0" encoding="utf-8"?>
<!-- Generator: Adobe Illustrator 20.1.0, SVG Export Plug-In . SVG Version: 6.00 Build 0)  -->
<svg version="1.1" id="Layer_1" xmlns="http://www.w3.org/2000/svg" xmlns:xlink="http://www.w3.org/1999/xlink" x="0px" y="0px"
	 viewBox="0 0 28 32" style="enable-background:new 0 0 28 32;" xml:space="preserve">
<title>Combined Shape</title>
<desc>Created with Sketch.</desc>
<g id="Page-1">
	<g id="Group" transform="translate(-4.000000, -2.000000)">
		<g id="linux-icon">
			<g id="Group-2">
				<g transform="translate(4.943662, 2.281690)">
					<path id="Combined-Shape" d="M25.2,24.9c0.7,0.8,1,1.3,0.9,1.8c0,0.5-0.4,0.8-0.9,1.1c-0.9,0.6-2.3,1-3.1,2l-0.2-0.1l0.2,0.1
						c-0.9,1-2,1.6-3,1.7c-1,0.1-2-0.4-2.5-1.4c0,0,0,0,0,0c-0.1-0.1-0.1-0.3-0.2-0.4c-1.3,0.1-2.5-0.3-3.4-0.3
						c-1.4,0.1-2.2,0.4-3,0.4c-0.3,0.7-0.9,1.1-1.6,1.2c-1,0.2-2.2,0-3.5-0.6l0.1-0.2L5,30.5c-1.1-0.6-2.6-0.5-3.7-0.8
						c-0.5-0.1-1-0.3-1.2-0.8c-0.2-0.4-0.2-1.1,0.1-2c0.1-0.3,0-0.8-0.1-1.3c0-0.2-0.1-0.5-0.1-0.7c0-0.3,0-0.5,0.2-0.8c0,0,0,0,0,0
						c0,0,0,0,0,0c0.3-0.5,0.7-0.7,1.1-0.9c0.4-0.1,0.8-0.2,1.1-0.5c0.3-0.3,0.5-0.7,0.9-1.1c0,0,0.1-0.1,0.1-0.1
						c-0.2-1.1,0-2.2,0.4-3.3c0.8-2.3,2.4-4.6,3.6-6c1-1.4,1.3-2.5,1.4-4C9,6.4,7.5,0.5,13.1,0c0.2,0,0.4,0,0.6,0
						c5,0,4.7,5.3,4.7,8.1c0,1.9,1,3.1,2.1,4.4c0.9,1.1,2.2,2.7,2.9,4.6c0.6,1.5,0.8,3.2,0.2,4.9c0.1,0,0.2,0.1,0.3,0.1
						c0.1,0,0.2,0.1,0.2,0.2c0,0,0,0,0,0c0.4,0.3,0.5,0.9,0.7,1.4C24.8,24.2,24.9,24.6,25.2,24.9C25.2,24.9,25.2,24.9,25.2,24.9z
						 M22.9,21.8c0.2-0.8-0.3-1.4-1.6-2c-0.1,0-0.2-0.1-0.3-0.1c0.2-0.7,0.1-1.5,0-2.2c-0.4-1.6-1.4-2.9-2.2-3.6
						c-0.1,0-0.1,0.1,0.2,0.4c0.7,0.7,2.3,3,1.4,5.2c-0.2-0.1-0.5-0.1-0.7-0.1c-0.3-1.8-1.1-3.3-1.5-4c-0.7-1.3-1.8-4-2.3-5.9
						c-0.3,0.4-0.8,0.7-1.4,0.9c0,0,0,0,0,0c-0.3,0.1-0.6,0.3-1,0.6c-0.4,0.2-0.8,0.4-1.3,0.4c0,0-0.1,0-0.1,0
						c-0.5,0-0.9-0.2-1.2-0.4c-0.3-0.2-0.5-0.5-0.8-0.6c0,0,0,0,0,0c-0.1-0.1-0.3-0.2-0.4-0.2c-0.1,2.3-1.7,5.3-2.4,6.9
						c-0.5,1.2-0.8,2.5-0.9,3.8c-1.3-1.8-0.4-4.1,0.2-5.1c0.6-1.1,0.7-1.4,0.5-1.3c-0.5,0.9-1.4,2.2-1.7,3.6c-0.2,0.7-0.2,1.5,0,2.2
						c0.2,0.7,0.7,1.3,1.5,1.8c0,0,0,0,0,0c1.1,0.7,1.9,1.4,2.4,2c0.5,0.6,0.6,1.2,0.5,1.5c-0.1,0.2-0.2,0.3-0.4,0.4
						c-0.2,0.1-0.4,0.1-0.6,0.1c0.1,0.2,0.2,0.3,0.4,0.5c0.2,0.2,0.4,0.5,0.5,0.7c2.3,1.6,5.1,1,7.1-0.4c0.2-0.7,0.4-1.3,0.4-1.8
						c0,0,0,0,0,0c0-0.9,0.1-1.8,0.3-2.5c0.2-0.7,0.5-1.3,1-1.6c0.1,0,0.2-0.1,0.3-0.1c0-0.1,0-0.1,0-0.2c0.2-1.1,1.1-1.1,2.3-0.6
						c1.2,0.5,1.6,1,1.4,1.6c0,0,0,0,0,0C22.7,21.8,22.8,21.8,22.9,21.8z M25.7,26.6c0-0.3-0.2-0.8-0.8-1.5l0,0l0,0
						c-0.3-0.4-0.4-0.9-0.5-1.4c-0.1-0.5-0.2-0.9-0.5-1.2l0,0l0,0c-0.4-0.3-0.7-0.3-1.1-0.3c-0.1,0-0.2,0-0.3,0
						c-0.5,0.5-1.6,1.2-2.4,1c-0.7-0.2-1.1-1-1.2-1.8c0,0,0,0-0.1,0c-0.4,0.2-0.7,0.7-0.8,1.3c-0.2,0.6-0.2,1.4-0.3,2.4v0
						c0,0.7-0.4,1.6-0.6,2.5c-0.2,0.9-0.3,1.7-0.1,2.2l0,0l0,0c0.4,0.9,1.2,1.3,2.1,1.2c0.9-0.1,1.9-0.6,2.7-1.6
						c0.9-1.1,2.4-1.6,3.3-2.1C25.5,27.2,25.7,26.9,25.7,26.6z M10,29c0.1-0.6-0.4-1.3-1-2.1c-0.6-0.8-1.3-1.5-1.6-2.2l0,0l0,0
						l-1.2-2.2c-0.4-0.6-0.9-0.9-1.4-1c-0.1,0-0.1,0-0.2,0c0,0,0,0,0,0c-0.4,0-0.6,0.2-0.9,0.4c-0.3,0.3-0.5,0.8-0.9,1.1l0,0l0,0
						c-0.4,0.4-0.8,0.5-1.2,0.6C1.3,23.9,1,24,0.8,24.4l0,0c-0.2,0.3-0.1,0.8-0.1,1.2c0.1,0.5,0.2,1,0,1.5l0,0l0,0
						c-0.3,0.8-0.3,1.3-0.2,1.6c0.1,0.3,0.5,0.4,1,0.5c1,0.2,2.5,0.1,3.8,0.8c0,0,0,0,0,0c1.2,0.6,2.3,0.8,3.2,0.6
						C9.4,30.5,9.9,30,10,29L10,29L10,29z M15.9,8.5c-0.1-0.2-0.3-0.4-0.6-0.5l0,0l0,0c-0.7-0.3-1-0.3-1.4-0.6
						c-0.6-0.4-1.2-0.6-1.6-0.6c-0.2,0-0.4,0-0.6,0.1c-0.5,0.2-0.9,0.6-1.1,0.8l0,0c0,0,0,0,0,0c0,0-0.1,0.1-0.2,0.2
						C10.2,8,10,8.2,9.7,8.4C9.4,8.6,9.3,8.8,9.4,9.1c0.1,0.3,0.4,0.6,0.9,0.9l0,0l0,0c0.3,0.2,0.6,0.5,0.8,0.7
						c0.1,0.1,0.3,0.2,0.4,0.3c0.2,0.1,0.4,0.1,0.6,0.1c0.6,0,1-0.1,1.3-0.3c0.4-0.2,0.7-0.5,1-0.6l0,0l0,0c0.7-0.2,1.2-0.7,1.4-1.1
						C16,8.9,16,8.7,15.9,8.5z M16,6.3C16,6.3,16,6.3,16,6.3c0-0.4-0.1-0.7-0.2-1c-0.1-0.3-0.3-0.5-0.6-0.7
						c-0.3-0.2-0.5-0.3-0.8-0.3h0c-0.3,0-0.5,0.1-0.8,0.3C13.3,4.8,13.1,5,13,5.3c-0.1,0.3-0.2,0.6-0.2,1v0c0,0.1,0,0.2,0,0.3
						c0.2,0.1,0.5,0.1,0.7,0.3c0-0.1,0-0.2,0-0.3c0,0,0,0,0,0c0-0.2,0-0.4,0.1-0.5c0.1-0.2,0.2-0.3,0.3-0.4c0.1-0.1,0.2-0.1,0.3-0.1
						c0,0,0,0,0,0c0.1,0,0.2,0.1,0.4,0.2c0.1,0.1,0.2,0.2,0.2,0.4C14.9,6.2,15,6.4,15,6.6c0,0,0,0,0,0c0,0.2,0,0.4-0.1,0.5
						c0,0.1-0.1,0.2-0.2,0.3c0.1,0,0.2,0.1,0.3,0.1c0.1,0,0.2,0.1,0.4,0.1c0,0,0.1,0,0.1,0.1c0.1-0.1,0.2-0.3,0.3-0.5
						C15.9,7,16,6.6,16,6.3z M11.8,6.7c0-0.1,0-0.2,0-0.4v0c0-0.3-0.1-0.6-0.2-0.9c-0.1-0.3-0.3-0.5-0.5-0.6
						c-0.2-0.1-0.3-0.2-0.5-0.2c0,0,0,0,0,0c-0.2,0-0.4,0.1-0.6,0.3C9.8,5.1,9.7,5.3,9.6,5.6C9.5,5.9,9.5,6.2,9.5,6.5v0
						c0,0.3,0.1,0.6,0.2,0.9c0.1,0.2,0.2,0.4,0.4,0.5c0.1,0,0.1-0.1,0.2-0.1c0.1-0.1,0.1-0.1,0.2-0.2c0,0,0,0,0,0
						c-0.1-0.1-0.2-0.2-0.2-0.3c-0.1-0.1-0.1-0.3-0.1-0.4c0,0,0,0,0,0c0-0.2,0-0.3,0-0.5c0-0.1,0.1-0.3,0.2-0.3
						c0.1-0.1,0.2-0.1,0.2-0.1c0,0,0,0,0,0c0.1,0,0.2,0,0.2,0.1C10.9,6,11,6.1,11,6.2c0.1,0.1,0.1,0.3,0.1,0.4c0,0,0,0,0,0
						c0,0.1,0,0.2,0,0.3c0.2-0.1,0.3-0.2,0.5-0.3C11.7,6.7,11.7,6.7,11.8,6.7z"/>
				</g>
			</g>
		</g>
	</g>
</g>
</svg>
